<mxfile host="app.diagrams.net" modified="2020-11-30T14:22:19.265Z" agent="5.0 (Macintosh; Intel Mac OS X 11_0_0) AppleWebKit/537.36 (KHTML, like Gecko) Chrome/86.0.4240.198 Safari/537.36" etag="tf1h7RjJdGF9NENybPhc" version="13.10.1" type="github">
  <diagram id="3YizE1NmRUBRxTcdSk0L" name="第 1 页">
    <mxGraphModel dx="946" dy="1730" grid="0" gridSize="10" guides="1" tooltips="1" connect="1" arrows="1" fold="1" page="1" pageScale="1" pageWidth="827" pageHeight="1169" background="#D5E8D4" math="0" shadow="1">
      <root>
        <mxCell id="0" />
        <mxCell id="1" parent="0" />
        <mxCell id="x0zZbvw9kxUuruOCz2IA-1" value="&lt;font style=&quot;font-size: 18px&quot;&gt;能力沉淀反哺平台&lt;br&gt;(持续可发展的能力反哺)&lt;br&gt;&lt;/font&gt;" style="rounded=1;whiteSpace=wrap;html=1;shadow=1;sketch=1;" parent="1" vertex="1">
          <mxGeometry x="328" y="172" width="248" height="167" as="geometry" />
        </mxCell>
        <mxCell id="x0zZbvw9kxUuruOCz2IA-2" value="&lt;br&gt;&lt;br&gt;&lt;br&gt;&lt;br&gt;&lt;br&gt;&lt;br&gt;&lt;br&gt;&amp;nbsp; &amp;nbsp; &amp;nbsp; &amp;nbsp; &amp;nbsp; &amp;nbsp; &amp;nbsp; &amp;nbsp; &amp;nbsp; &amp;nbsp;...&lt;br&gt;&lt;br&gt;&lt;br&gt;&amp;nbsp; &amp;nbsp; &amp;nbsp; &amp;nbsp; &amp;nbsp; &amp;nbsp;基础服务&lt;br&gt;&lt;div style=&quot;text-align: justify&quot;&gt;&lt;/div&gt;" style="rounded=1;whiteSpace=wrap;html=1;align=left;shadow=1;sketch=1;" parent="1" vertex="1">
          <mxGeometry x="59" y="176" width="120" height="169" as="geometry" />
        </mxCell>
        <mxCell id="x0zZbvw9kxUuruOCz2IA-3" value="" style="shape=singleArrow;whiteSpace=wrap;html=1;fillColor=#67AB9F;shadow=1;sketch=1;" parent="1" vertex="1">
          <mxGeometry x="198" y="172" width="100" height="133.5" as="geometry" />
        </mxCell>
        <mxCell id="x0zZbvw9kxUuruOCz2IA-4" value="" style="shape=singleArrow;whiteSpace=wrap;html=1;rotation=-180;fillColor=#E6D0DE;shadow=1;sketch=1;" parent="1" vertex="1">
          <mxGeometry x="198" y="303" width="100" height="28" as="geometry" />
        </mxCell>
        <mxCell id="x0zZbvw9kxUuruOCz2IA-5" value="" style="shape=singleArrow;direction=west;whiteSpace=wrap;html=1;fillColor=#67AB9F;shadow=1;sketch=1;" parent="1" vertex="1">
          <mxGeometry x="604" y="166" width="100" height="129" as="geometry" />
        </mxCell>
        <mxCell id="x0zZbvw9kxUuruOCz2IA-6" value="" style="shape=singleArrow;direction=west;whiteSpace=wrap;html=1;rotation=-181;fillColor=#B9E0A5;shadow=1;sketch=1;" parent="1" vertex="1">
          <mxGeometry x="605.98" y="291" width="100" height="27" as="geometry" />
        </mxCell>
        <mxCell id="x0zZbvw9kxUuruOCz2IA-7" value="" style="shape=singleArrow;direction=north;whiteSpace=wrap;html=1;fillColor=#67AB9F;shadow=1;sketch=1;" parent="1" vertex="1">
          <mxGeometry x="338" y="372" width="148" height="100" as="geometry" />
        </mxCell>
        <mxCell id="x0zZbvw9kxUuruOCz2IA-8" value="" style="shape=singleArrow;direction=north;whiteSpace=wrap;html=1;rotation=-180;fillColor=#A9C4EB;shadow=1;sketch=1;" parent="1" vertex="1">
          <mxGeometry x="495" y="372" width="30" height="100" as="geometry" />
        </mxCell>
        <mxCell id="x0zZbvw9kxUuruOCz2IA-9" value="&lt;br&gt;&amp;nbsp; &amp;nbsp; &amp;nbsp; &amp;nbsp; &amp;nbsp; &amp;nbsp; &amp;nbsp; &amp;nbsp; &amp;nbsp; &amp;nbsp; &amp;nbsp; &amp;nbsp; &amp;nbsp; &amp;nbsp; &amp;nbsp; &amp;nbsp; &amp;nbsp; &amp;nbsp; &amp;nbsp; &amp;nbsp; &amp;nbsp;...&lt;br&gt;&lt;br&gt;&lt;br&gt;运维能力" style="rounded=1;whiteSpace=wrap;html=1;shadow=1;sketch=1;" parent="1" vertex="1">
          <mxGeometry x="327" y="480" width="249" height="84" as="geometry" />
        </mxCell>
        <mxCell id="x0zZbvw9kxUuruOCz2IA-10" value="" style="rounded=1;whiteSpace=wrap;html=1;shadow=1;sketch=1;" parent="1" vertex="1">
          <mxGeometry x="713" y="172" width="120" height="211" as="geometry" />
        </mxCell>
        <mxCell id="x0zZbvw9kxUuruOCz2IA-11" value="" style="rounded=1;whiteSpace=wrap;html=1;shadow=1;sketch=1;" parent="1" vertex="1">
          <mxGeometry x="205" y="-154" width="450" height="216" as="geometry" />
        </mxCell>
        <mxCell id="x0zZbvw9kxUuruOCz2IA-12" value="" style="shape=singleArrow;direction=north;whiteSpace=wrap;html=1;fillColor=#67AB9F;shadow=1;sketch=1;" parent="1" vertex="1">
          <mxGeometry x="349" y="66" width="145" height="100" as="geometry" />
        </mxCell>
        <mxCell id="x0zZbvw9kxUuruOCz2IA-13" value="" style="shape=singleArrow;direction=south;whiteSpace=wrap;html=1;fillColor=#CDA2BE;shadow=1;sketch=1;" parent="1" vertex="1">
          <mxGeometry x="519" y="66" width="34" height="100" as="geometry" />
        </mxCell>
        <mxCell id="x0zZbvw9kxUuruOCz2IA-16" value="鉴黄" style="rounded=1;whiteSpace=wrap;html=1;shadow=1;sketch=1;" parent="1" vertex="1">
          <mxGeometry x="70" y="222" width="46" height="31" as="geometry" />
        </mxCell>
        <mxCell id="x0zZbvw9kxUuruOCz2IA-17" value="加解密" style="rounded=1;whiteSpace=wrap;html=1;shadow=1;sketch=1;" parent="1" vertex="1">
          <mxGeometry x="70" y="183" width="46" height="31" as="geometry" />
        </mxCell>
        <mxCell id="x0zZbvw9kxUuruOCz2IA-18" value="短信" style="rounded=1;whiteSpace=wrap;html=1;shadow=1;sketch=1;" parent="1" vertex="1">
          <mxGeometry x="125" y="222" width="46" height="31" as="geometry" />
        </mxCell>
        <mxCell id="x0zZbvw9kxUuruOCz2IA-19" value="地址" style="rounded=1;whiteSpace=wrap;html=1;shadow=1;sketch=1;" parent="1" vertex="1">
          <mxGeometry x="125" y="183" width="46" height="31" as="geometry" />
        </mxCell>
        <mxCell id="x0zZbvw9kxUuruOCz2IA-22" value="邮件" style="rounded=1;whiteSpace=wrap;html=1;shadow=1;sketch=1;" parent="1" vertex="1">
          <mxGeometry x="70" y="265" width="46" height="31" as="geometry" />
        </mxCell>
        <mxCell id="x0zZbvw9kxUuruOCz2IA-28" value="jenkin构建" style="rounded=1;whiteSpace=wrap;html=1;shadow=1;sketch=1;" parent="1" vertex="1">
          <mxGeometry x="337" y="490" width="52" height="31" as="geometry" />
        </mxCell>
        <mxCell id="x0zZbvw9kxUuruOCz2IA-29" value="snoar扫描" style="rounded=1;whiteSpace=wrap;html=1;shadow=1;sketch=1;" parent="1" vertex="1">
          <mxGeometry x="402" y="490" width="46" height="31" as="geometry" />
        </mxCell>
        <mxCell id="x0zZbvw9kxUuruOCz2IA-30" value="容器化" style="rounded=1;whiteSpace=wrap;html=1;shadow=1;sketch=1;" parent="1" vertex="1">
          <mxGeometry x="461" y="490" width="46" height="31" as="geometry" />
        </mxCell>
        <mxCell id="x0zZbvw9kxUuruOCz2IA-32" value="" style="rounded=1;whiteSpace=wrap;html=1;shadow=1;sketch=1;" parent="1" vertex="1">
          <mxGeometry x="221" y="-38" width="147" height="80" as="geometry" />
        </mxCell>
        <mxCell id="x0zZbvw9kxUuruOCz2IA-34" value="商品" style="rounded=1;whiteSpace=wrap;html=1;shadow=1;sketch=1;" parent="1" vertex="1">
          <mxGeometry x="235" y="-30" width="54" height="28" as="geometry" />
        </mxCell>
        <mxCell id="x0zZbvw9kxUuruOCz2IA-36" value="品类" style="rounded=1;whiteSpace=wrap;html=1;shadow=1;sketch=1;" parent="1" vertex="1">
          <mxGeometry x="301" y="-30" width="54" height="28" as="geometry" />
        </mxCell>
        <mxCell id="x0zZbvw9kxUuruOCz2IA-37" value="品牌" style="rounded=1;whiteSpace=wrap;html=1;shadow=1;sketch=1;" parent="1" vertex="1">
          <mxGeometry x="235" y="8" width="54" height="28" as="geometry" />
        </mxCell>
        <mxCell id="x0zZbvw9kxUuruOCz2IA-38" value="&lt;br&gt;营销" style="rounded=1;whiteSpace=wrap;html=1;shadow=1;sketch=1;" parent="1" vertex="1">
          <mxGeometry x="385" y="-135" width="119" height="80" as="geometry" />
        </mxCell>
        <mxCell id="x0zZbvw9kxUuruOCz2IA-39" value="优惠券" style="rounded=1;whiteSpace=wrap;html=1;shadow=1;sketch=1;" parent="1" vertex="1">
          <mxGeometry x="394.5" y="-128" width="54" height="28" as="geometry" />
        </mxCell>
        <mxCell id="x0zZbvw9kxUuruOCz2IA-40" value="订单" style="rounded=1;whiteSpace=wrap;html=1;shadow=1;sketch=1;" parent="1" vertex="1">
          <mxGeometry x="220" y="-135" width="148" height="80" as="geometry" />
        </mxCell>
        <mxCell id="x0zZbvw9kxUuruOCz2IA-41" value="安全" style="rounded=1;whiteSpace=wrap;html=1;shadow=1;sketch=1;" parent="1" vertex="1">
          <mxGeometry x="716" y="181" width="114" height="60" as="geometry" />
        </mxCell>
        <mxCell id="x0zZbvw9kxUuruOCz2IA-42" value="算法" style="rounded=1;whiteSpace=wrap;html=1;shadow=1;sketch=1;" parent="1" vertex="1">
          <mxGeometry x="716" y="247.5" width="114" height="60" as="geometry" />
        </mxCell>
        <mxCell id="x0zZbvw9kxUuruOCz2IA-43" value="数据" style="rounded=1;whiteSpace=wrap;html=1;shadow=1;sketch=1;" parent="1" vertex="1">
          <mxGeometry x="716" y="316" width="114" height="60" as="geometry" />
        </mxCell>
        <mxCell id="x0zZbvw9kxUuruOCz2IA-44" value="活动" style="rounded=1;whiteSpace=wrap;html=1;shadow=1;sketch=1;" parent="1" vertex="1">
          <mxGeometry x="519" y="-135" width="119" height="80" as="geometry" />
        </mxCell>
        <mxCell id="1Kbe6kFRLFThT_0jCIPD-2" value="支付,退款" style="rounded=1;whiteSpace=wrap;html=1;shadow=1;sketch=1;" vertex="1" parent="1">
          <mxGeometry x="383.5" y="-38" width="122" height="80" as="geometry" />
        </mxCell>
        <mxCell id="1Kbe6kFRLFThT_0jCIPD-3" value="售后" style="rounded=1;whiteSpace=wrap;html=1;shadow=1;sketch=1;" vertex="1" parent="1">
          <mxGeometry x="519" y="-38" width="120" height="80" as="geometry" />
        </mxCell>
        <mxCell id="1Kbe6kFRLFThT_0jCIPD-4" value="商品偏下层&lt;br&gt;和人相关的在上层" style="text;html=1;strokeColor=none;fillColor=none;align=center;verticalAlign=middle;whiteSpace=wrap;rounded=0;shadow=1;sketch=1;" vertex="1" parent="1">
          <mxGeometry x="46" y="-181" width="130" height="12" as="geometry" />
        </mxCell>
        <mxCell id="1Kbe6kFRLFThT_0jCIPD-5" value="" style="rounded=1;whiteSpace=wrap;html=1;fillColor=#A9C4EB;shadow=1;sketch=1;" vertex="1" parent="1">
          <mxGeometry x="221" y="641" width="434" height="83" as="geometry" />
        </mxCell>
        <mxCell id="1Kbe6kFRLFThT_0jCIPD-6" value="H5" style="rounded=1;whiteSpace=wrap;html=1;fillColor=#A9C4EB;shadow=1;sketch=1;" vertex="1" parent="1">
          <mxGeometry x="240" y="653" width="120" height="60" as="geometry" />
        </mxCell>
        <mxCell id="1Kbe6kFRLFThT_0jCIPD-7" value="APP" style="rounded=1;whiteSpace=wrap;html=1;fillColor=#A9C4EB;shadow=1;sketch=1;" vertex="1" parent="1">
          <mxGeometry x="380" y="653" width="120" height="60" as="geometry" />
        </mxCell>
        <mxCell id="1Kbe6kFRLFThT_0jCIPD-8" value="MINI" style="rounded=1;whiteSpace=wrap;html=1;fillColor=#A9C4EB;shadow=1;sketch=1;" vertex="1" parent="1">
          <mxGeometry x="522" y="653" width="120" height="60" as="geometry" />
        </mxCell>
        <mxCell id="1Kbe6kFRLFThT_0jCIPD-9" value="&lt;font style=&quot;font-size: 18px&quot;&gt;能力沉淀反哺平台&lt;br&gt;(持续可发展的能力反哺)&lt;br&gt;&lt;/font&gt;" style="rounded=1;whiteSpace=wrap;html=1;shadow=1;sketch=1;" vertex="1" parent="1">
          <mxGeometry x="301" y="890" width="248" height="167" as="geometry" />
        </mxCell>
        <mxCell id="1Kbe6kFRLFThT_0jCIPD-11" value="" style="shape=singleArrow;direction=north;whiteSpace=wrap;html=1;fillColor=#A9C4EB;shadow=1;sketch=1;" vertex="1" parent="1">
          <mxGeometry x="337" y="765" width="60" height="100" as="geometry" />
        </mxCell>
        <mxCell id="1Kbe6kFRLFThT_0jCIPD-12" value="" style="shape=singleArrow;direction=south;whiteSpace=wrap;html=1;fillColor=#A9C4EB;shadow=1;sketch=1;" vertex="1" parent="1">
          <mxGeometry x="448" y="765" width="60" height="100" as="geometry" />
        </mxCell>
      </root>
    </mxGraphModel>
  </diagram>
</mxfile>
